<svg xmlns="http://www.w3.org/2000/svg" width="30.001" height="24" viewBox="0 0 30.001 24">
  <path id="add-code" d="M4.5,12.5a1.493,1.493,0,0,1-.439,1.06l-.44.44.44.44A1.494,1.494,0,0,1,4.5,15.5v6A1.5,1.5,0,0,0,6,23a1.5,1.5,0,1,1,0,3,4.505,4.505,0,0,1-4.5-4.5V16.121L.44,15.06a1.5,1.5,0,0,1,0-2.121L1.5,11.879V6.5A4.505,4.505,0,0,1,6,2,1.5,1.5,0,0,1,6,5,1.5,1.5,0,0,0,4.5,6.5Zm25.061.44a1.5,1.5,0,0,1,0,2.121L28.5,16.121V21.5A4.505,4.505,0,0,1,24,26a1.5,1.5,0,0,1,0-3,1.5,1.5,0,0,0,1.5-1.5v-6a1.493,1.493,0,0,1,.439-1.06l.439-.44-.439-.44A1.494,1.494,0,0,1,25.5,12.5v-6A1.5,1.5,0,0,0,24,5a1.5,1.5,0,0,1,0-3,4.505,4.505,0,0,1,4.5,4.5v5.379ZM19.5,12.5a1.5,1.5,0,0,1,0,3h-3v3a1.5,1.5,0,1,1-3,0v-3h-3a1.5,1.5,0,0,1,0-3h3v-3a1.5,1.5,0,1,1,3,0v3Z" transform="translate(0 -2)" fill="#fff"/>
</svg>
