<svg xmlns="http://www.w3.org/2000/svg" width="20.7" height="23" viewBox="0 0 20.7 23">
  <path id="bell" d="M21.4,15.324V11.2a8.057,8.057,0,0,0-5.917-7.753,2.3,2.3,0,0,0-4.266,0A8.058,8.058,0,0,0,5.3,11.2v4.124L3.337,17.287A1.145,1.145,0,0,0,3,18.1v2.3a1.149,1.149,0,0,0,1.15,1.15h18.4A1.149,1.149,0,0,0,23.7,20.4V18.1a1.145,1.145,0,0,0-.337-.813Zm0,3.926H5.3v-.674l1.963-1.963A1.145,1.145,0,0,0,7.6,15.8V11.2a5.75,5.75,0,1,1,11.5,0v4.6a1.145,1.145,0,0,0,.337.813L21.4,18.576ZM13.35,25a3.427,3.427,0,0,0,3.241-2.3H10.109A3.427,3.427,0,0,0,13.35,25Z" transform="translate(-3 -2)"/>
</svg>
