<svg xmlns="http://www.w3.org/2000/svg" width="20" height="19" viewBox="0 0 20 19">
  <path id="book-open" d="M21,3H14a2.981,2.981,0,0,0-2,.78A2.981,2.981,0,0,0,10,3H3A1,1,0,0,0,2,4V19a1,1,0,0,0,1,1H8.758a2.015,2.015,0,0,1,1.414.586l1.121,1.121c.009.009.021.012.03.021a1.021,1.021,0,0,0,.294.2h0a.993.993,0,0,0,.762,0h0a1.021,1.021,0,0,0,.294-.2c.009-.009.021-.012.03-.021l1.121-1.121A2.015,2.015,0,0,1,15.242,20H21a1,1,0,0,0,1-1V4A1,1,0,0,0,21,3ZM8.758,18H4V5h6a1,1,0,0,1,1,1V18.689A4.032,4.032,0,0,0,8.758,18ZM20,18H15.242A4.032,4.032,0,0,0,13,18.689V6a1,1,0,0,1,1-1h6Z" transform="translate(-2 -3)"/>
</svg>
