<svg xmlns="http://www.w3.org/2000/svg" width="14" height="13.974" viewBox="0 0 14 13.974">
  <path id="edit" d="M13.214.76a2.744,2.744,0,0,0-3.79,0L1.605,8.578a.683.683,0,0,0-.16.258c0,.006-.008.01-.01.017l-1.4,4.2a.7.7,0,0,0,.885.885l4.2-1.4c.007,0,.01-.008.017-.01a.683.683,0,0,0,.257-.159l7.819-7.819a2.678,2.678,0,0,0,0-3.79Zm-.99,2.8-.325.325-1.81-1.81.325-.325a1.31,1.31,0,0,1,1.81,0,1.279,1.279,0,0,1,0,1.81Zm-9.818,6.81,1.2,1.2-1.8.6.6-1.8Zm2.494.514-1.81-1.81L9.1,3.064l1.81,1.81Z" transform="translate(0.001 0)" fill="#0056fc"/>
</svg>
