<svg xmlns="http://www.w3.org/2000/svg" width="20.108" height="19.414" viewBox="0 0 20.108 19.414"><path d="M12,5a10.863,10.863,0,0,0-4.617.971L3.707,2.293,2.293,3.707,5.608,7.023a10.882,10.882,0,0,0-3.557,4.66L1.946,12l.105.316A10.491,10.491,0,0,0,12,19a10.857,10.857,0,0,0,4.615-.971l3.678,3.678,1.414-1.414L18.39,16.976a10.886,10.886,0,0,0,3.559-4.66l.1-.316-.1-.316A10.49,10.49,0,0,0,12,5ZM4.074,12a8.238,8.238,0,0,1,.521-.989l5.867,5.867A8.309,8.309,0,0,1,4.074,12Zm9.247,4.907L5.841,9.426a8.138,8.138,0,0,1,1.188-.982L15.084,16.5A8.835,8.835,0,0,1,13.321,16.907Zm3.648-1.352-1.541-1.541a3.779,3.779,0,0,0,.317-3.364A.983.983,0,0,1,15,11a.993.993,0,0,1-.318-1.936,3.879,3.879,0,0,0-4.7-.493L8.915,7.5A9.292,9.292,0,0,1,12,7a8.348,8.348,0,0,1,7.926,5A8.574,8.574,0,0,1,16.969,15.555Z" transform="translate(-1.946 -2.293)"/></svg>