<svg xmlns="http://www.w3.org/2000/svg" width="20.108" height="14" viewBox="0 0 20.108 14"><g transform="translate(-1.946 -5)"><path d="M14,12a2.012,2.012,0,0,1-2-2,1.961,1.961,0,0,1,.268-.973C12.178,9.02,12.092,9,12,9a3,3,0,1,0,3,3c0-.092-.02-.178-.027-.268A1.961,1.961,0,0,1,14,12Z" fill="#5d5d5d"/><path d="M12,5a10.487,10.487,0,0,0-9.948,6.684L1.946,12l.1.316A10.491,10.491,0,0,0,12,19a10.487,10.487,0,0,0,9.948-6.684L22.054,12l-.1-.316A10.491,10.491,0,0,0,12,5Zm0,12a8.347,8.347,0,0,1-7.926-5A8.348,8.348,0,0,1,12,7a8.347,8.347,0,0,1,7.926,5A8.348,8.348,0,0,1,12,17Z" fill="#5d5d5d"/></g></svg>