<svg xmlns="http://www.w3.org/2000/svg" width="20" height="20" viewBox="0 0 20 20">
  <path id="filter" d="M1,4H4.185a2.981,2.981,0,0,0,5.63,0H19a1,1,0,0,0,0-2H9.815a2.981,2.981,0,0,0-5.63,0H1A1,1,0,0,0,1,4M19,16H9.815a2.981,2.981,0,0,0-5.63,0H1a1,1,0,0,0,0,2H4.185a2.981,2.981,0,0,0,5.63,0H19a1,1,0,0,0,0-2m0-7H15.815a2.981,2.981,0,0,0-5.63,0H1a1,1,0,0,0,0,2h9.185a2.981,2.981,0,0,0,5.63,0H19a1,1,0,0,0,0-2M7,2A1,1,0,1,1,6,3,1,1,0,0,1,7,2M7,18a1,1,0,1,1,1-1,1,1,0,0,1-1,1m6-7a1,1,0,1,1,1-1,1,1,0,0,1-1,1" fill="#5d5d5d"/>
</svg>
