<svg xmlns="http://www.w3.org/2000/svg" width="21.789" height="23" viewBox="0 0 21.789 23">
  <path id="filter-search" d="M24.579,3H5.211A1.209,1.209,0,0,0,4,4.211V7.346a2.429,2.429,0,0,0,.706,1.7l6.557,6.557v9.183a1.211,1.211,0,0,0,1.752,1.083l4.842-2.421a1.212,1.212,0,0,0,.669-1.083V15.606l6.557-6.557a2.428,2.428,0,0,0,.706-1.7V4.211A1.209,1.209,0,0,0,24.579,3ZM16.46,14.249a1.205,1.205,0,0,0-.355.856V21.62l-2.421,1.211V15.105a1.205,1.205,0,0,0-.355-.856l-6.908-6.9V5.421H23.37l0,1.916Z" transform="translate(-4 -3)" fill="#0056fc"/>
</svg>
