<svg xmlns="http://www.w3.org/2000/svg" width="20" height="20" viewBox="0 0 20 20">
  <path id="gift" d="M11,9h7V7H11Zm0,9h5V11H11ZM4,18H9V11H4ZM2,9H9V7H2ZM4.75,3.5A1.5,1.5,0,0,1,6.25,2C7.812,2,8.661,3.42,8.912,5H6.25A1.5,1.5,0,0,1,4.75,3.5ZM13,3a1,1,0,0,1,0,2H11.113C11.32,4.036,11.851,3,13,3Zm6,2H15.815A2.938,2.938,0,0,0,16,4a3,3,0,0,0-3-3,3.534,3.534,0,0,0-2.871,1.425A4.33,4.33,0,0,0,6.25,0a3.5,3.5,0,0,0-3.5,3.5A3.454,3.454,0,0,0,3.1,5H1A1,1,0,0,0,0,6v4a1,1,0,0,0,1,1H2v8a1,1,0,0,0,1,1H17a1,1,0,0,0,1-1V11h1a1,1,0,0,0,1-1V6A1,1,0,0,0,19,5Z" fill="#fd784c" fill-rule="evenodd"/>
</svg>
