<svg xmlns="http://www.w3.org/2000/svg" width="30" height="29.259" viewBox="0 0 30 29.259">
  <path id="github" d="M17.052,2A15,15,0,0,0,12.31,31.235c.75.135,1.021-.326,1.021-.723,0-.356-.012-1.3-.017-2.551-4.173.905-5.055-2.012-5.055-2.012A3.963,3.963,0,0,0,6.6,23.754c-1.361-.931.1-.91.1-.91A3.141,3.141,0,0,1,9,24.39a3.194,3.194,0,0,0,4.364,1.247,3.216,3.216,0,0,1,.955-2.006c-3.33-.377-6.831-1.665-6.831-7.414a5.812,5.812,0,0,1,1.54-4.023,5.4,5.4,0,0,1,.149-3.97s1.259-.4,4.124,1.535a14.2,14.2,0,0,1,7.508,0c2.866-1.942,4.124-1.535,4.124-1.535a5.371,5.371,0,0,1,.149,3.97,5.775,5.775,0,0,1,1.54,4.023c0,5.764-3.5,7.031-6.846,7.4a3.594,3.594,0,0,1,1.015,2.776c0,2.006-.018,3.624-.018,4.116,0,.4.268.868,1.033.72A15,15,0,0,0,17.052,2Z" transform="translate(-2.052 -2)" fill="#0056fc" fill-rule="evenodd"/>
</svg>
