<svg xmlns="http://www.w3.org/2000/svg" width="30" height="30" viewBox="0 0 30 30">
  <path id="intersect" d="M6.333,24.667h5v5A3.337,3.337,0,0,0,14.667,33h15A3.337,3.337,0,0,0,33,29.667v-15a3.337,3.337,0,0,0-3.333-3.333h-5v-5A3.337,3.337,0,0,0,21.333,3h-15A3.337,3.337,0,0,0,3,6.333v15A3.337,3.337,0,0,0,6.333,24.667Zm15-3.333h0l0-6.667h0Zm8.332-6.667,0,15h-15v-5h6.667a3.337,3.337,0,0,0,3.333-3.333V14.667ZM6.333,6.333h15v5H14.667a3.337,3.337,0,0,0-3.333,3.333v6.667h-5Z" transform="translate(-3 -3)" fill="#0056fc"/>
</svg>
