<svg xmlns="http://www.w3.org/2000/svg" width="16" height="20" viewBox="0 0 16 20">
  <path id="receipt" d="M16,17.132V2H4V17.132l1.445-.964a1,1,0,0,1,1.262.125L8,17.586l1.293-1.293a1,1,0,0,1,1.414,0L12,17.586l1.293-1.293a1,1,0,0,1,1.262-.125L16,17.132ZM17,0a1,1,0,0,1,1,1V19a1,1,0,0,1-1.555.832l-2.318-1.545-1.42,1.42a1,1,0,0,1-1.414,0L10,18.414,8.707,19.707a1,1,0,0,1-1.414,0l-1.42-1.42L3.555,19.832A1,1,0,0,1,2,19V1A1,1,0,0,1,3,0ZM7,6A1,1,0,0,1,7,4h6a1,1,0,0,1,0,2Zm0,8a1,1,0,0,1,0-2h3a1,1,0,0,1,0,2Zm0-4A1,1,0,0,1,7,8h6a1,1,0,0,1,0,2Z" transform="translate(-2)" fill="#5d5d5d" fill-rule="evenodd"/>
</svg>
