<svg xmlns="http://www.w3.org/2000/svg" width="23" height="23.001" viewBox="0 0 23 23.001">
  <g id="search" transform="translate(-2 -2)">
    <path id="Path_51437" data-name="Path 51437" d="M11.836,21.672A9.777,9.777,0,0,0,17.857,19.6l5.4,5.4L25,23.263l-5.4-5.4a9.824,9.824,0,1,0-7.759,3.814Zm0-17.213a7.377,7.377,0,1,1-7.377,7.377A7.384,7.384,0,0,1,11.836,4.459Z" transform="translate(0 0)"/>
    <path id="Path_51438" data-name="Path 51438" d="M12.385,9.171a2.448,2.448,0,0,1,.723,1.738h2.459a4.889,4.889,0,0,0-1.443-3.477,5.026,5.026,0,0,0-6.949,0L8.91,9.173A2.513,2.513,0,0,1,12.385,9.171Z" transform="translate(1.187 0.927)"/>
  </g>
</svg>
