<svg id="trash" xmlns="http://www.w3.org/2000/svg" width="18" height="20" viewBox="0 0 18 20">
  <path id="Path_51420" data-name="Path 51420" d="M17,20V8H7V20ZM13,10h2v8H13ZM9,10h2v8H9ZM9,4h6V6H9Z" transform="translate(-3.003 -2)" fill="none"/>
  <path id="Path_51421" data-name="Path 51421" d="M5,20a2,2,0,0,0,2,2H17a2,2,0,0,0,2-2V8h2V6H17V4a2,2,0,0,0-2-2H9A2,2,0,0,0,7,4V6H3V8H5V20ZM9,4h6V6H9ZM8,8h9V20H7V8Z" transform="translate(-3.003 -2)" fill="#99bbfe"/>
  <path id="Path_51422" data-name="Path 51422" d="M9,10h2v8H9Zm4,0h2v8H13Z" transform="translate(-3.003 -2)" fill="#99bbfe"/>
</svg>
