<svg xmlns="http://www.w3.org/2000/svg" width="20" height="20" viewBox="0 0 20 20"><path d="M14.414,9H19a1,1,0,0,1,0,2H14.414l1.293,1.293a1,1,0,1,1-1.414,1.414l-3-3a1,1,0,0,1,0-1.414l3-3a1,1,0,0,1,1.414,1.414ZM5.707,6.293l3,3a1,1,0,0,1,0,1.414l-3,3a1,1,0,1,1-1.414-1.414L5.586,11H1A1,1,0,0,1,1,9H5.586L4.293,7.707A1,1,0,1,1,5.707,6.293ZM8,4A1,1,0,0,1,6,4V1A1,1,0,0,1,7,0h6a1,1,0,0,1,1,1V4a1,1,0,0,1-2,0V2H8Zm4,12a1,1,0,0,1,2,0v3a1,1,0,0,1-1,1H7a1,1,0,0,1-1-1V16a1,1,0,0,1,2,0v2h4Z" fill="#9a98b4"/></svg>