<svg xmlns="http://www.w3.org/2000/svg" width="20" height="20" viewBox="0 0 20 20"><path d="M6,8H5a1,1,0,0,0,0,2H6A1,1,0,0,0,6,8Zm8,2h1a1,1,0,0,0,0-2H14a1,1,0,0,0,0,2ZM6,4H5A1,1,0,0,0,5,6H6A1,1,0,0,0,6,4Zm0,8H5a1,1,0,0,0,0,2H6a1,1,0,0,0,0-2Z" fill="#0056fc"/><path d="M19,0H12a2.987,2.987,0,0,0-2,.766A2.987,2.987,0,0,0,8,0H1A1,1,0,0,0,0,1V17a1,1,0,0,0,1,1H8a1,1,0,0,1,1,1,1,1,0,0,0,2,0,1,1,0,0,1,1-1h7a1,1,0,0,0,1-1V1A1,1,0,0,0,19,0ZM9,16.179A2.959,2.959,0,0,0,8,16H2V2H8A1,1,0,0,1,9,3ZM18,16H12a2.959,2.959,0,0,0-1,.179V3a1,1,0,0,1,1-1h6Z" fill="#0056fc"/><path d="M14,6h1a1,1,0,0,0,0-2H14a1,1,0,0,0,0,2Z" fill="#0056fc"/></svg>