<svg xmlns="http://www.w3.org/2000/svg" width="30" height="26.25" viewBox="0 0 30 26.25"><g transform="translate(0 -1)"><path d="M14.562,17.125a2.785,2.785,0,0,1-2.421-1.408l-.27-.467H1.437A.938.938,0,0,1,.5,14.312V11.5H28.625v2.813a.938.938,0,0,1-.937.938H17.253l-.272.467A2.78,2.78,0,0,1,14.562,17.125Z" transform="translate(0.438 9.188)" fill="#8bb7f0"/><path d="M28.125,12.875V14.75H17.152l-.542.932a1.845,1.845,0,0,1-3.219,0l-.544-.932H1.875V12.875h26.25M30,11H0v3.75a1.876,1.876,0,0,0,1.875,1.875h9.894a3.721,3.721,0,0,0,6.461,0h9.894A1.876,1.876,0,0,0,30,14.75V11Z" transform="translate(0 8.75)" fill="#4e7ab5"/><path d="M.5,22.125V1.5H10.812a2.816,2.816,0,0,1,2.813,2.812H15.5A2.816,2.816,0,0,1,18.313,1.5H28.625V22.125Z" transform="translate(0.438 0.438)" fill="#fff"/><path d="M28.125,2.875v18.75H1.875V2.875H11.25A1.878,1.878,0,0,1,13.125,4.75h3.75A1.878,1.878,0,0,1,18.75,2.875h9.375M30,1H18.75A3.749,3.749,0,0,0,15,4.75h0A3.749,3.749,0,0,0,11.25,1H0V23.5H30V1Z" transform="translate(0 0)" fill="#788b9c"/><path d="M8,20.75H21.125V2H11.75A1.873,1.873,0,0,0,9.875,3.875H8Z" transform="translate(7 0.875)" fill="#e1ebf2"/><g transform="translate(18.75 1)"><path d="M13.312,14.514,10.5,15.921V1.5h5.625V15.921Z" transform="translate(-9.562 -0.562)" fill="#f78f8f"/><path d="M15.625,2.875V14.841l-1.037-.517-.838-.42-.838.42-1.037.517V2.875h3.75M17.5,1H10V17.875L13.75,16l3.75,1.875V1Z" transform="translate(-10 -1)" fill="#c74343"/></g></g></svg>