<svg xmlns="http://www.w3.org/2000/svg" width="30" height="32.879" viewBox="0 0 30 32.879"><g transform="translate(-72.796 -67.952)"><g transform="translate(72.796 67.952)"><g transform="translate(0 0)"><g transform="translate(0 0)"><g transform="translate(0 0)"><g transform="translate(0 0)"><path d="M55.589,35.389a1.527,1.527,0,0,1,.52,0,3.108,3.108,0,0,0,.025-1.308c-.125-.793-.293-1.274-.642-1.2s-.362.65-.237,1.443a3.2,3.2,0,0,0,.334,1.064" transform="translate(-32.824 -19.593)" fill="#1a1919" fill-rule="evenodd"/><path d="M42.811,38.416c.323.124.522.206.6.134.05-.045.035-.13-.042-.24a1.874,1.874,0,0,0-.837-.587,2.565,2.565,0,0,0-2.218.232c-.216.138-.422.33-.392.446.01.038.042.066.118.075.179.018.8-.257,1.52-.3a2.977,2.977,0,0,1,1.251.235" transform="translate(-23.828 -22.35)" fill="#1a1919" fill-rule="evenodd"/><path d="M43.452,41.1a2.661,2.661,0,0,0-.944.219c-.15.073-.242.153-.241.21a.058.058,0,0,0,.038.05.183.183,0,0,0,.081.017,2.5,2.5,0,0,0,.362-.056,5.558,5.558,0,0,1,1.594-.092c.249.016.367.024.421-.023.016-.014.036-.043-.014-.088a2.177,2.177,0,0,0-1.3-.236" transform="translate(-25.192 -24.431)" fill="#1a1919" fill-rule="evenodd"/><path d="M51.993,42.013a.425.425,0,0,0,.643-.136.608.608,0,0,0-.3-.7.425.425,0,0,0-.643.136.608.608,0,0,0,.3.7" transform="translate(-30.728 -24.445)" fill="#1a1919" fill-rule="evenodd"/><path d="M57.788,39.919c-.139,0-.254.219-.257.5s.107.506.246.509.254-.219.257-.5-.107-.506-.246-.509" transform="translate(-34.199 -23.747)" fill="#1a1919" fill-rule="evenodd"/><path d="M14.084,49.2c-.06-.077-.158-.054-.253-.031a.876.876,0,0,1-.224.033.482.482,0,0,1-.41-.215.809.809,0,0,1,.018-.728c.016-.04.035-.084.056-.133a2.215,2.215,0,0,0,.153-1.905,1.638,1.638,0,0,0-1.251-.939,1.579,1.579,0,0,0-1.378.513,2.093,2.093,0,0,0-.512,1.72c.038.107.1.136.139.142.091.012.224-.055.308-.288.006-.017.014-.043.024-.076a2.327,2.327,0,0,1,.221-.536.944.944,0,0,1,1.337-.288.99.99,0,0,1,.357,1.172,2.816,2.816,0,0,0-.186,1.042,1.022,1.022,0,0,0,.9,1.068.76.76,0,0,0,.721-.371.164.164,0,0,0-.016-.18" transform="translate(-5.856 -27.05)" fill="#1a1919" fill-rule="evenodd"/><path d="M11.261,9.246A14.22,14.22,0,0,1,15.223,5.9a.052.052,0,0,1,.069.073,4.019,4.019,0,0,0-.368.927.054.054,0,0,0,.082.058,7.565,7.565,0,0,1,3.478-1.268.057.057,0,0,1,.037.1,3.014,3.014,0,0,0-.547.567.055.055,0,0,0,.042.087,6.646,6.646,0,0,1,2.908.787c.054.031.016.14-.045.126a11.474,11.474,0,0,0-5.268.015,11.922,11.922,0,0,0-4.277,1.952A.055.055,0,0,1,11.261,9.246Zm10.82,14.338a.1.1,0,0,0,.055-.1.09.09,0,0,0-.1-.082,11,11,0,0,1-4.932-.518c.261-.876.955-.56,2-.472a14.21,14.21,0,0,0,4.837-.54,10.943,10.943,0,0,0,3.617-1.858,7.718,7.718,0,0,1,.505,1.779.818.818,0,0,1,.531.1c.228.145.4.447.281,1.226a6.869,6.869,0,0,1-1.84,3.726,7.609,7.609,0,0,1-2.21,1.705,9.172,9.172,0,0,1-1.443.629c-3.8,1.281-7.686-.127-8.939-3.152a4.964,4.964,0,0,1-.251-.714,6.422,6.422,0,0,1,1.337-5.889s0,0,0,0a.539.539,0,0,0,.177-.351.629.629,0,0,0-.136-.333c-.5-.743-2.213-2.008-1.869-4.457a3.27,3.27,0,0,1,3.127-2.925l.352.021c.6.037,1.127.117,1.623.138a3.179,3.179,0,0,0,2.459-.848,1.889,1.889,0,0,1,.941-.55,1.112,1.112,0,0,1,.36-.036,1.161,1.161,0,0,1,.605.2c.708.487.809,1.665.846,2.528.021.492.079,1.683.1,2.025.045.782.244.892.647,1.029.226.077.437.134.746.224a4.159,4.159,0,0,1,1.844.9,1.212,1.212,0,0,1,.336.681c.11.833-.626,1.862-2.576,2.8a12.722,12.722,0,0,1-6.505,1.075l-.626-.073c-1.429-.2-2.245,1.709-1.387,3.016a4.478,4.478,0,0,0,3.566,1.391c3.455,0,6.11-1.523,7.1-2.839a1.322,1.322,0,0,0,.079-.116c.049-.076.009-.117-.052-.074-.807.57-4.391,2.834-8.226,2.153a4.977,4.977,0,0,1-.891-.25,1.626,1.626,0,0,1-1.131-1.221A7.256,7.256,0,0,0,22.081,23.584ZM5.086,15.991a4.112,4.112,0,0,0-2.6,1.716,7.191,7.191,0,0,1-1.107-1.1c-.926-1.815,1.011-5.346,2.363-7.339,3.343-4.926,8.579-8.655,11-7.979.394.115,1.7,1.678,1.7,1.678a34.1,34.1,0,0,0-4.67,3.323A21.891,21.891,0,0,0,5.086,15.991Zm1.808,8.331a2.5,2.5,0,0,1-.5.036,3.916,3.916,0,0,1-3.542-3.335,3.293,3.293,0,0,1,2.513-3.852,2.853,2.853,0,0,1,.726-.053c.968.055,2.4.823,2.722,3C9.1,22.049,8.646,24.013,6.894,24.322Zm21.933-3.494c-.014-.051-.1-.392-.228-.8a6.61,6.61,0,0,0-.253-.7,2.6,2.6,0,0,0,.441-1.848,2.367,2.367,0,0,0-.658-1.321A5.3,5.3,0,0,0,25.8,14.966l-.592-.17c0-.025-.031-1.442-.057-2.05a7.235,7.235,0,0,0-.262-1.8,4.869,4.869,0,0,0-1.209-2.228,7.662,7.662,0,0,0,2.394-4.811c0-2.87-3.417-3.738-7.623-1.94l-.891.391S15.952.724,15.928.7C11.133-3.617-3.86,13.592.933,17.772l1.048.916a5.478,5.478,0,0,0-.291,2.455,4.885,4.885,0,0,0,1.618,3.1,4.838,4.838,0,0,0,3.174,1.32,12.138,12.138,0,0,0,11.125,7.316c5.361.164,9.861-2.433,11.746-7.1A10.056,10.056,0,0,0,30,22.68C30,21.371,29.283,20.828,28.827,20.828Z" transform="translate(0 -0.012)" fill="#1a1919" fill-rule="evenodd"/></g></g></g></g></g></g></svg>