<svg id="img-mastercard" xmlns="http://www.w3.org/2000/svg" width="36.803" height="23" viewBox="0 0 36.803 23">
  <path id="Path_551" data-name="Path 551" d="M22.993,66.219a11.5,11.5,0,1,1-11.5-11.5A11.5,11.5,0,0,1,22.993,66.219Z" transform="translate(0 -54.719)" fill="#e2574c"/>
  <path id="Path_552" data-name="Path 552" d="M120.931,54.719a11.433,11.433,0,0,0-6.87,2.293h.009a9.853,9.853,0,0,1,1.114,1.041l-2.392.038a11.823,11.823,0,0,0-1.038,1.218h4.218a10.684,10.684,0,0,1,.887,1.145h-5.87A11.459,11.459,0,0,0,110.4,61.6h7.125a9.8,9.8,0,0,1,.495,1.11H109.98a11.08,11.08,0,0,0-.32,1.217h8.7c.085.4.151.766.2,1.141h-9.067c-.038.378-.058.762-.058,1.15h9.19a10.1,10.1,0,0,1-.07,1.15h-9.062q.059.585.173,1.15h8.685c-.09.373-.193.747-.323,1.136h-8.068a11.161,11.161,0,0,0,.432,1.148h7.142a10.476,10.476,0,0,1-.669,1.145h-5.889a11.186,11.186,0,0,0,.767,1.155l4.237.063a11.2,11.2,0,0,1-1.247,1.074c.023.018-.675,0-2.049-.024a11.5,11.5,0,1,0,8.255-19.5Z" transform="translate(-95.628 -54.719)" fill="#f4b459"/>
</svg>
