<svg xmlns="http://www.w3.org/2000/svg" width="50" height="50" viewBox="0 0 50 50"><g transform="translate(-40 -77)"><path d="M52.6,77H52.25A12.261,12.261,0,0,0,40,89.272v25.467A12.261,12.261,0,0,0,52.261,127h.989a72.054,72.054,0,0,1-.641-50Z" fill="#0070ba"/><path d="M76.384,77H60.08a63.772,63.772,0,0,0,.728,50H76.384a12.261,12.261,0,0,0,12.283-12.272V89.272A12.261,12.261,0,0,0,76.384,77ZM68.71,123.87a2.174,2.174,0,0,1-2.989-.4h0a35,35,0,0,1,0-42.239h0a2.174,2.174,0,0,1,3.38,2.554h0a30.707,30.707,0,0,0,0,36.957h0l.065.076a2.174,2.174,0,0,1-.457,3.065Zm7.87-6.13a1.435,1.435,0,0,1-2.011-.272V117.4h0a24.261,24.261,0,0,1,0-30.152h0l.065-.087a1.446,1.446,0,1,1,2.185,1.793l-.109.109a21.424,21.424,0,0,0,0,26.587h0l.076.076a1.435,1.435,0,0,1-.207,2.022Z" transform="translate(1.333 0)" fill="#0070ba"/></g></svg>