<svg xmlns="http://www.w3.org/2000/svg" xmlns:xlink="http://www.w3.org/1999/xlink" width="35" height="45" viewBox="0 0 35 45"><defs><linearGradient id="a" x1="0.5" x2="0.5" y2="1" gradientUnits="objectBoundingBox"><stop offset="0" stop-color="#fff"/><stop offset="1" stop-color="#f3f6ff"/></linearGradient></defs><g transform="translate(-2 -17)"><path d="M30,17H16V48H37V25Z" fill="#0056fc"/><path d="M23,24H9V55H30V32Z" fill="#00d7fe"/><path d="M16,31H2V62H23V39Z" fill="#cdf"/><path d="M16,39h7l-7-8Z" fill="url(#a)"/><path d="M23,32h7l-7-8Z" fill="#80ebff"/><path d="M30,25h7l-7-8Z" fill="#00d7fe"/><path d="M5,34h8v2H5Z" fill="#99bbfe"/><path d="M5,40H15v2H5Z" fill="#99bbfe"/><path d="M5,44H20v2H5Z" fill="#99bbfe"/><path d="M5,48H20v2H5Z" fill="#99bbfe"/><path d="M5,52H20v2H5Z" fill="#99bbfe"/><path d="M5,56h8v2H5Z" fill="#99bbfe"/><path d="M16,56h4v2H16Z" fill="#99bbfe"/></g></svg>