<svg xmlns="http://www.w3.org/2000/svg" width="25" height="32.821" viewBox="0 0 25 32.821"><g transform="translate(-61)"><path d="M121,0h21.154V28.974H121Z" transform="translate(-56.154)" fill="#ff9e7e"/><path d="M226,0h14.423V28.974H226Z" transform="translate(-154.423)" fill="#fd784c"/><path d="M82.154,61V89.91H68.692L61,82.218V61Z" transform="translate(0 -57.09)" fill="#f0f7ff"/><path d="M226,61h10.577V89.91H226Z" transform="translate(-154.423 -57.09)" fill="#e8effd"/><path d="M61,392v1.36l6.333,6.333h1.36V392Z" transform="translate(0 -366.872)" fill="#cdf"/><g transform="translate(64.166 9.064)"><path d="M113,146.319l-2.6-2.6,1.36-1.36L113,143.6l2.2-2.2,1.36,1.36Z" transform="translate(-110.395 -141.395)" fill="#fd784c"/></g><g transform="translate(71.577 11.667)"><path d="M226,182h6.731v1.923H226Z" transform="translate(-226 -182)" fill="#cdf"/></g><g transform="translate(64.166 13.871)"><path d="M113,221.319l-2.6-2.6,1.36-1.36L113,218.6l2.2-2.2,1.36,1.36Z" transform="translate(-110.395 -216.395)" fill="#fd784c"/></g><g transform="translate(71.577 16.474)"><path d="M226,257h6.731v1.923H226Z" transform="translate(-226 -257)" fill="#cdf"/></g><g transform="translate(64.166 18.679)"><path d="M113,296.319l-2.6-2.6,1.36-1.36L113,293.6l2.2-2.2,1.36,1.36Z" transform="translate(-110.395 -291.395)" fill="#fd784c"/></g><g transform="translate(71.577 21.282)"><path d="M226,332h6.731v1.923H226Z" transform="translate(-226 -332)" fill="#cdf"/></g></g></svg>