<svg xmlns="http://www.w3.org/2000/svg" width="44.971" height="50" viewBox="0 0 44.971 50"><g transform="translate(0 0)"><g transform="translate(0)"><g transform="translate(0)"><path d="M186.583,71.881A12.7,12.7,0,0,0,181.97,67.3a12.386,12.386,0,0,0-4.665-1.616V59.628a4.47,4.47,0,0,0,2.756-4.185,4.6,4.6,0,1,0-9.193,0,4.416,4.416,0,0,0,2.7,4.185v6.057a13.321,13.321,0,0,0-4.06,1.272c-2.632-2-11.261-8.555-16.308-12.385a5.007,5.007,0,0,0,.212-1.346,5.14,5.14,0,1,0-2.477,4.354l1.065.808,14.638,10.547a12.272,12.272,0,0,0-2.071,2.425,11.318,11.318,0,0,0-1.882,6.1v.463a12.786,12.786,0,0,0,.8,4.409,11.574,11.574,0,0,0,1.9,3.294l-4.858,4.87a3.925,3.925,0,1,0,2.407,2.511l5.021-5.022a12.9,12.9,0,0,0,2.231,1.221,13.047,13.047,0,0,0,5.221,1.1h.349a12.5,12.5,0,0,0,10.629-5.9,11.535,11.535,0,0,0,1.813-6.214v-.114A12.183,12.183,0,0,0,186.583,71.881Zm-6.135,10.535a6.386,6.386,0,0,1-4.7,2.448h-.292a6.354,6.354,0,0,1-2.97-.788,6.863,6.863,0,0,1-2.6-2.37,5.526,5.526,0,0,1-1.083-3.225v-.349a6.608,6.608,0,0,1,.763-3.212,6.956,6.956,0,0,1,2.422-2.649,5.927,5.927,0,0,1,3.355-1.012h.114a6.8,6.8,0,0,1,3.155.727,6.683,6.683,0,0,1,2.478,2.254,7.17,7.17,0,0,1,1.111,3.167c.019.238.028.481.028.714A6.266,6.266,0,0,1,180.448,82.416Z" transform="translate(-143.217 -48.13)" fill="#f37316"/></g></g></g></svg>