<svg id="img-paypal" xmlns="http://www.w3.org/2000/svg" width="19.63" height="23" viewBox="0 0 19.63 23">
  <path id="Path_555" data-name="Path 555" d="M147.818,116.33a.478.478,0,0,0-.719.361c-.017.157-.044.314-.078.479-.938,4.258-2.822,6.329-5.761,6.329h-4.313a.479.479,0,0,0-.469.383l-1.437,6.738-.257,1.715a1.438,1.438,0,0,0,1.406,1.7h2.885a1.431,1.431,0,0,0,1.394-1.092l1.165-4.658h2.5c2.951,0,4.99-2.353,5.742-6.625h0A5.008,5.008,0,0,0,147.818,116.33Z" transform="translate(-130.391 -111.041)" fill="#03a9f4"/>
  <path id="Path_556" data-name="Path 556" d="M54.037,1.708A5.043,5.043,0,0,0,50.3,0H42.364a2.383,2.383,0,0,0-2.371,2.037L37.529,18.474a1.438,1.438,0,0,0,1.423,1.651h3.68a.479.479,0,0,0,.469-.383l1.356-6.325h3.929c3.41,0,5.663-2.383,6.7-7.092a5.641,5.641,0,0,0,.1-.568A4.948,4.948,0,0,0,54.037,1.708Z" transform="translate(-37.513 0)" fill="#283593"/>
</svg>
