<svg xmlns="http://www.w3.org/2000/svg" width="50" height="50" viewBox="0 0 50 50"><g transform="translate(0 0)"><g transform="translate(0 0)"><g transform="translate(0 0)"><path d="M25,20.673A4.327,4.327,0,1,1,20.673,25,4.327,4.327,0,0,1,25,20.673ZM10.256,25a14.743,14.743,0,0,1,29.487,0,14.9,14.9,0,0,1-.085,1.594,2.3,2.3,0,0,0,2.371,2.534c2.424,0,2.682-3.125,2.682-4.128a19.708,19.708,0,1,0-5.124,13.258l4.052,3.4A25,25,0,1,1,50,25c0,5.55-2.643,10.057-7.95,10.057a5.106,5.106,0,0,1-4.531-2.265A14.745,14.745,0,0,1,10.256,25ZM25,15.545A9.455,9.455,0,1,0,34.455,25,9.455,9.455,0,0,0,25,15.545Z" fill="#af272a"/></g></g></g></svg>