<svg xmlns="http://www.w3.org/2000/svg" width="50" height="54.799" viewBox="0 0 50 54.799"><g transform="translate(-72.796 -67.952)"><g transform="translate(72.796 67.952)"><g transform="translate(0 0)"><g transform="translate(0 0)"><g transform="translate(0)"><g transform="translate(0 0)"><path d="M55.859,37.066a2.545,2.545,0,0,1,.866,0,5.181,5.181,0,0,0,.042-2.181c-.208-1.322-.489-2.123-1.071-2s-.6,1.083-.395,2.405a5.333,5.333,0,0,0,.557,1.774" transform="translate(-17.918 -10.739)" fill="#1a1919" fill-rule="evenodd"/><path d="M44.739,38.98c.539.206.87.343,1,.223.083-.074.059-.217-.07-.4a3.123,3.123,0,0,0-1.394-.978,4.275,4.275,0,0,0-3.7.387c-.361.23-.7.549-.654.743.016.063.07.11.2.125.3.03,1.337-.428,2.534-.492a4.961,4.961,0,0,1,2.084.391" transform="translate(-13.1 -12.203)" fill="#1a1919" fill-rule="evenodd"/><path d="M44.242,41.105a4.435,4.435,0,0,0-1.573.364c-.249.121-.4.255-.4.349a.1.1,0,0,0,.063.084.3.3,0,0,0,.136.029,4.158,4.158,0,0,0,.6-.093,9.263,9.263,0,0,1,2.657-.153c.415.026.611.04.7-.039.027-.023.06-.072-.023-.147a3.629,3.629,0,0,0-2.163-.394" transform="translate(-13.809 -13.323)" fill="#1a1919" fill-rule="evenodd"/><path d="M52.216,42.627a.708.708,0,0,0,1.072-.227,1.013,1.013,0,0,0-.506-1.164.708.708,0,0,0-1.072.227,1.013,1.013,0,0,0,.506,1.164" transform="translate(-16.774 -13.347)" fill="#1a1919" fill-rule="evenodd"/><path d="M57.959,39.919c-.231-.006-.423.365-.429.828s.178.843.409.849.423-.365.429-.828-.178-.843-.409-.849" transform="translate(-18.644 -12.966)" fill="#1a1919" fill-rule="evenodd"/><g transform="translate(0 0)"><path d="M16.643,51.824c-.1-.129-.263-.09-.422-.051a1.459,1.459,0,0,1-.373.054.8.8,0,0,1-.684-.358,1.349,1.349,0,0,1,.029-1.214c.027-.067.059-.141.094-.221a3.691,3.691,0,0,0,.255-3.175,2.73,2.73,0,0,0-2.085-1.566,2.632,2.632,0,0,0-2.3.855,3.489,3.489,0,0,0-.853,2.867c.063.178.161.227.232.237.151.021.374-.092.513-.48.01-.028.023-.071.04-.126a3.879,3.879,0,0,1,.368-.893,1.574,1.574,0,0,1,2.229-.479,1.649,1.649,0,0,1,.594,1.953,4.694,4.694,0,0,0-.31,1.737,1.7,1.7,0,0,0,1.492,1.779,1.266,1.266,0,0,0,1.2-.618.273.273,0,0,0-.026-.3" transform="translate(-2.93 -14.904)" fill="#1a1919" fill-rule="evenodd"/><path d="M18.768,15.4a23.7,23.7,0,0,1,6.6-5.573.087.087,0,0,1,.115.121,6.7,6.7,0,0,0-.613,1.546.09.09,0,0,0,.137.1,12.608,12.608,0,0,1,5.8-2.113.1.1,0,0,1,.061.168,5.023,5.023,0,0,0-.912.945.091.091,0,0,0,.069.146,11.077,11.077,0,0,1,4.846,1.312c.091.052.026.233-.075.209a19.124,19.124,0,0,0-8.779.024,19.87,19.87,0,0,0-7.129,3.254A.091.091,0,0,1,18.768,15.4ZM36.8,39.3a.164.164,0,0,0,.092-.163A.15.15,0,0,0,36.731,39a18.328,18.328,0,0,1-8.221-.863c.435-1.46,1.592-.933,3.34-.787a23.684,23.684,0,0,0,8.062-.9,18.239,18.239,0,0,0,6.029-3.1,12.864,12.864,0,0,1,.842,2.965,1.363,1.363,0,0,1,.884.167c.38.242.659.744.469,2.044a11.449,11.449,0,0,1-3.066,6.21,12.682,12.682,0,0,1-3.683,2.842,15.287,15.287,0,0,1-2.405,1.049c-6.33,2.135-12.81-.212-14.9-5.253a8.273,8.273,0,0,1-.419-1.191,10.7,10.7,0,0,1,2.228-9.815s0,0,0,0a.9.9,0,0,0,.294-.585,1.049,1.049,0,0,0-.227-.555c-.826-1.238-3.689-3.347-3.114-7.429.413-2.933,2.9-5,5.212-4.875.2.01.392.023.587.035,1,.062,1.879.194,2.7.23a5.3,5.3,0,0,0,4.1-1.413,3.149,3.149,0,0,1,1.569-.916,1.853,1.853,0,0,1,.6-.061,1.935,1.935,0,0,1,1.009.333c1.181.811,1.348,2.776,1.409,4.213.035.82.131,2.805.164,3.375.075,1.3.407,1.487,1.078,1.715.377.128.728.224,1.244.374a6.931,6.931,0,0,1,3.073,1.5,2.02,2.02,0,0,1,.56,1.135c.184,1.388-1.044,3.1-4.294,4.661A21.2,21.2,0,0,1,31.015,35.9l-1.044-.122c-2.382-.331-3.741,2.848-2.311,5.026.922,1.4,3.431,2.317,5.943,2.318,5.758,0,10.183-2.538,11.829-4.731a2.2,2.2,0,0,0,.132-.194c.081-.126.014-.2-.087-.124-1.345.95-7.319,4.723-13.709,3.588a8.294,8.294,0,0,1-1.485-.417A2.711,2.711,0,0,1,28.4,39.209C33.554,40.856,36.8,39.3,36.8,39.3ZM8.477,26.643A6.854,6.854,0,0,0,4.136,29.5a11.985,11.985,0,0,1-1.844-1.836C.749,24.641,3.976,18.757,6.231,15.435c5.572-8.211,14.3-14.426,18.338-13.3.657.192,2.832,2.8,2.832,2.8a56.833,56.833,0,0,0-7.783,5.539A36.485,36.485,0,0,0,8.477,26.643ZM11.49,40.528a4.165,4.165,0,0,1-.828.06,6.527,6.527,0,0,1-5.9-5.559c-.32-3.288,1.307-5.819,4.188-6.419a4.755,4.755,0,0,1,1.209-.089c1.614.091,3.993,1.371,4.536,5C15.175,36.74,14.41,40.014,11.49,40.528Zm36.555-5.823c-.023-.084-.174-.653-.381-1.338a11.017,11.017,0,0,0-.421-1.167,4.34,4.34,0,0,0,.734-3.081,3.945,3.945,0,0,0-1.1-2.2,8.826,8.826,0,0,0-3.875-1.982c-.215-.062-.925-.264-.987-.283,0-.042-.052-2.4-.095-3.417a12.058,12.058,0,0,0-.436-3,8.115,8.115,0,0,0-2.014-3.713c2.459-2.632,3.993-5.531,3.99-8.018-.007-4.783-5.7-6.23-12.705-3.233l-1.485.651c-.007-.007-2.685-2.721-2.725-2.757-7.992-7.2-32.981,21.484-24.991,28.45L3.3,31.139a9.13,9.13,0,0,0-.485,4.092,8.142,8.142,0,0,0,2.7,5.175,8.064,8.064,0,0,0,5.291,2.2C13.912,50,21.016,54.544,29.345,54.8c8.934.274,16.434-4.055,19.577-11.832A16.759,16.759,0,0,0,50,37.791C50,35.609,48.806,34.705,48.045,34.705Z" transform="translate(0 -0.012)" fill="#1a1919" fill-rule="evenodd"/></g></g></g></g></g></g></g></svg>