<svg id="img-visa" xmlns="http://www.w3.org/2000/svg" width="47.932" height="15" viewBox="0 0 47.932 15">
  <g id="Group_1190" data-name="Group 1190" transform="translate(4.479 0)">
    <g id="Group_1189" data-name="Group 1189">
      <path id="Path_553" data-name="Path 553" d="M42.376,100.23,39.97,115.2h3.845l2.4-14.97Zm11.6,6.1c-1.344-.664-2.167-1.111-2.167-1.79.016-.617.7-1.249,2.215-1.249a6.691,6.691,0,0,1,2.864.554l.349.156.523-3.132a9.7,9.7,0,0,0-3.451-.617c-3.8,0-6.471,1.974-6.487,4.8-.031,2.084,1.914,3.24,3.37,3.933,1.487.712,1.994,1.173,1.994,1.8-.016.971-1.2,1.418-2.31,1.418a7.82,7.82,0,0,1-3.608-.771l-.506-.231-.538,3.255a12.008,12.008,0,0,0,4.288.773c4.035,0,6.661-1.944,6.694-4.954C57.217,108.626,56.191,107.361,53.974,106.328Zm13.641-6.052H64.64a1.905,1.905,0,0,0-2.01,1.2L56.918,115.2h4.035l1.111-2.97H66.58l.577,2.982h3.559Zm-4.431,8.956c.078.008,1.549-4.849,1.549-4.849l1.171,4.849Zm-26.427-9L32.99,110.4l-.41-2.006a11.176,11.176,0,0,0-5.318-6.078l3.45,12.868H34.78l6.046-14.953H36.757Z" transform="translate(-27.262 -100.23)" fill="#2394bc"/>
    </g>
  </g>
  <path id="Path_554" data-name="Path 554" d="M8.529,102.176a2.512,2.512,0,0,0-2.5-1.928H.061L0,100.525c4.654,1.147,8.56,4.678,9.828,8Z" transform="translate(0 -100.245)" fill="#efc75e"/>
</svg>
