<svg id="img-american-express" xmlns="http://www.w3.org/2000/svg" width="31.901" height="22" viewBox="0 0 31.901 22">
  <path id="Path_572" data-name="Path 572" d="M31.9,99.565a1.886,1.886,0,0,1-1.886,1.886H1.886A1.886,1.886,0,0,1,0,99.565V81.337a1.886,1.886,0,0,1,1.886-1.886H30.015A1.886,1.886,0,0,1,31.9,81.337V99.565Z" transform="translate(0 -79.451)" fill="#306fc5"/>
  <path id="Path_573" data-name="Path 573" d="M1.341,99.565V81.337a1.886,1.886,0,0,1,1.886-1.886H1.886A1.886,1.886,0,0,0,0,81.337V99.565a1.886,1.886,0,0,0,1.886,1.886H3.226A1.886,1.886,0,0,1,1.341,99.565Z" transform="translate(0 -79.451)" fill="#202121" opacity="0.15"/>
  <g id="Group_1192" data-name="Group 1192" transform="translate(2.29 6.464)">
    <path id="Path_574" data-name="Path 574" d="M74.59,202.491h.953l-.476-1.213Z" transform="translate(-72.232 -200.152)" fill="#fff"/>
    <path id="Path_575" data-name="Path 575" d="M155.946,286.107v.563h1.6v.607h-1.6v.65h1.776l.823-.91-.78-.91Z" transform="translate(-148.519 -279.695)" fill="#fff"/>
    <path id="Path_576" data-name="Path 576" d="M349.073,201.278l-.52,1.213h1Z" transform="translate(-329.126 -200.152)" fill="#fff"/>
    <path id="Path_577" data-name="Path 577" d="M213.394,283.71v-2.469l-1.126,1.213Z" transform="translate(-201.332 -275.132)" fill="#fff"/>
    <path id="Path_578" data-name="Path 578" d="M243.553,286.5a.437.437,0,0,0-.477-.39h-.91v.78h.953C243.38,286.887,243.553,286.757,243.553,286.5Z" transform="translate(-229.368 -279.695)" fill="#fff"/>
    <path id="Path_579" data-name="Path 579" d="M294.834,287.455a.338.338,0,0,0,.13-.3.241.241,0,0,0-.13-.3.842.842,0,0,0-.346-.043h-.867v.693h.867A.842.842,0,0,0,294.834,287.455Z" transform="translate(-277.616 -280.35)" fill="#fff"/>
    <path id="Path_580" data-name="Path 580" d="M60.2,183.2v.52l-.26-.52H57.908v.52l-.26-.52H54.876a2.638,2.638,0,0,0-1.213.26v-.26H51.713v.26a1.249,1.249,0,0,0-.823-.26H43.915l-.477,1.083-.476-1.083H40.752v.52l-.217-.52H38.629l-.867,2.036-1,2.21-.018.043H39l.016-.043.26-.65h.563l.26.693h2.513v-.52l.217.52h1.256l.217-.52v.52h6.022v-1.126h.087c.087,0,.087,0,.087.13v.953h3.119v-.26a2.592,2.592,0,0,0,1.17.26h1.3l.26-.693h.606l.26.693h2.513v-.65l.39.65h2.036V183.2H60.2Zm-14.686,3.639h-.693v-2.383l-.043.1h0l-1.008,2.285h-.639l-1.04-2.383v2.383H40.622l-.3-.65H38.846l-.3.65h-.762l1.282-3.033h1.083l1.213,2.9v-2.9h1.148l.02.043h0l.547,1.19.393.891.014-.045.866-2.079h1.17v3.033Zm2.989-2.383h-1.69v.563h1.646v.606H46.817v.607h1.69v.65H46.081V183.8h2.426v.65Zm3.09,1.117,0,0a.493.493,0,0,1,.042.051.833.833,0,0,1,.153.508v.012s0,0,0,.007,0,0,0,0c0,.024,0,.048,0,.075v.607h-.65v-.347a1.031,1.031,0,0,0-.13-.607.394.394,0,0,0-.127-.087.864.864,0,0,0-.392-.043h-.78v1.083h-.736V183.8H50.63a1.661,1.661,0,0,1,.866.13.732.732,0,0,1,.345.674.861.861,0,0,1-.519.8A.58.58,0,0,1,51.6,185.572Zm1.459,1.266h-.737V183.8h.737Zm8.448,0h-.953l-1.386-2.3v1.906l0,0v.4h-.732v0h-.737l-.26-.65H55.915l-.26.693h-.823a1.3,1.3,0,0,1-1.429-1.516,1.776,1.776,0,0,1,.39-1.213,1.365,1.365,0,0,1,1.083-.347h.693v.65h-.693a.8.8,0,0,0-.563.173,1.018,1.018,0,0,0-.216.693.943.943,0,0,0,.216.737.691.691,0,0,0,.52.174h.3l1-2.383h1.083l1.213,2.9v-2.9h1.083l1.256,2.123v-2.123H61.5v2.989h0Z" transform="translate(-36.748 -183.198)" fill="#fff"/>
    <path id="Path_581" data-name="Path 581" d="M246.2,203.977a.233.233,0,0,0,.034-.046.468.468,0,0,0,.06-.327.241.241,0,0,0-.007-.039s0-.007,0-.01h0a.243.243,0,0,0-.131-.147.849.849,0,0,0-.347-.043h-.867v.693h.867a.844.844,0,0,0,.347-.043.162.162,0,0,0,.036-.026h0Z" transform="translate(-231.973 -202.108)" fill="#fff"/>
    <path id="Path_582" data-name="Path 582" d="M154.967,267.455a1.66,1.66,0,0,0-.216-.823v-1.949h0v-.13h-2.086a1.233,1.233,0,0,0-.6.26v-.26h-1.993a1.376,1.376,0,0,0-.867.26v-.26h-3.552v.26a1.676,1.676,0,0,0-.953-.26h-2.34v.26a1.646,1.646,0,0,0-1-.26h-2.6l-.607.65-.563-.65h-3.9v4.376h3.812l.626-.627.543.627H141.1v-1h.217a2.631,2.631,0,0,0,1-.13v1.17h1.95v-1.126h.086c.13,0,.13,0,.13.13v1h5.892a1.7,1.7,0,0,0,1-.26v.26h1.863a1.946,1.946,0,0,0,1.04-.217,1.455,1.455,0,0,0,.688-1.168c0-.015,0-.03.005-.045l0,0C154.966,267.511,154.967,267.483,154.967,267.455Zm-13.647-.26h-.867v1.126h-1.424l-.829-.953,0,0-.04-.047-.953,1h-2.773v-3.033h2.816l.769.843.162.176.022-.023.91-1h2.3a1.124,1.124,0,0,1,1.134.563,1.225,1.225,0,0,1,.036.3C142.576,267.022,141.97,267.2,141.32,267.2Zm4.332-.043a.984.984,0,0,1,.13.563v.606h-.736v-.39a.967.967,0,0,0-.13-.607c-.086-.13-.26-.13-.52-.13h-.78v1.126h-.736v-3.076h1.646a1.747,1.747,0,0,1,.867.13.767.767,0,0,1,.39.693.863.863,0,0,1-.52.823A.738.738,0,0,1,145.652,267.152Zm2.989-1.257h-1.69v.563H148.6v.607h-1.646v.607h1.69v.65h-2.426v-3.076h2.426Zm1.819,2.426h-1.386v-.65h1.386a.366.366,0,0,0,.3-.087.315.315,0,0,0,0-.433.367.367,0,0,0-.26-.087c-.693-.043-1.516,0-1.516-.953,0-.433.26-.91,1.04-.91h1.43v.736h-1.343a.643.643,0,0,0-.3.043c-.086.043-.086.13-.086.217,0,.13.086.173.173.216a.548.548,0,0,0,.26.043h.39a1.1,1.1,0,0,1,.823.26.9.9,0,0,1,.217.65C151.588,268.018,151.2,268.321,150.461,268.321Zm3.726-.3a1.262,1.262,0,0,1-.91.3h-1.386v-.65h1.386a.366.366,0,0,0,.3-.087.314.314,0,0,0,0-.433.366.366,0,0,0-.26-.087c-.693-.043-1.516,0-1.516-.953a.885.885,0,0,1,.817-.894,1.612,1.612,0,0,1,.223-.016h1.43v.736h-1.343a.641.641,0,0,0-.3.043.33.33,0,0,0-.087.217c0,.13.043.173.174.216a.547.547,0,0,0,.26.043h.39a1.354,1.354,0,0,1,.464.069.933.933,0,0,1,.606.685.973.973,0,0,1,.013.155A.881.881,0,0,1,154.187,268.018Z" transform="translate(-127.655 -259.483)" fill="#fff"/>
  </g>
</svg>
