<svg xmlns="http://www.w3.org/2000/svg" width="50" height="47.18" viewBox="0 0 50 47.18"><g transform="translate(0)"><g transform="translate(0 0)"><path d="M26.429,15.309a44.1,44.1,0,0,1,6.239.428c.01-.249.015-.5.015-.743a6.254,6.254,0,0,0-12.508,0q0,.369.015.743a44.1,44.1,0,0,1,6.239-.428M22.285,24.2a36.023,36.023,0,0,0,1.874,3.693,36.045,36.045,0,0,0,2.27,3.465,36,36,0,0,0,2.27-3.465A36.085,36.085,0,0,0,30.573,24.2a37.7,37.7,0,0,0-8.288,0m-8.393,2.42q-.333.174-.653.358a6.242,6.242,0,0,0,6.254,10.8q.32-.184.638-.385A43.842,43.842,0,0,1,16.64,32.22a43.828,43.828,0,0,1-2.748-5.6M32.727,37.395q.317.2.638.385A6.259,6.259,0,0,0,41.907,35.5a6.23,6.23,0,0,0-2.289-8.521q-.32-.184-.653-.358a43.755,43.755,0,0,1-2.748,5.6,43.708,43.708,0,0,1-3.491,5.175m3.754,9.882a14.968,14.968,0,0,1-7.458-2,27.434,27.434,0,0,1-2.595-1.7,27.435,27.435,0,0,1-2.595,1.7,14.968,14.968,0,0,1-7.458,2h0A14.894,14.894,0,0,1,8.9,19.477a27.453,27.453,0,0,1,2.773-1.392,27.338,27.338,0,0,1-.178-3.091,14.936,14.936,0,0,1,29.872,0,27.339,27.339,0,0,1-.178,3.091,27.453,27.453,0,0,1,2.773,1.392,14.877,14.877,0,0,1,5.467,20.35,14.994,14.994,0,0,1-12.945,7.45" transform="translate(-1.434 -0.097)" fill="#00d2ff"/><path d="M111.5,67.637a23.9,23.9,0,0,1,8.395,2.42,32.833,32.833,0,0,0,2.221-8.533,33.039,33.039,0,0,0-8.519-2.348,23.746,23.746,0,0,1-2.1,8.461" transform="translate(-82.363 -43.536)" fill="#20a6d6"/><path d="M84.659,124.211a23.826,23.826,0,0,1-6.3-6.041,23.834,23.834,0,0,1-6.3,6.041,32.909,32.909,0,0,0,6.3,6.185,32.925,32.925,0,0,0,6.3-6.185" transform="translate(-53.365 -86.912)" fill="#20a6d6"/><path d="M50.723,67.637a23.746,23.746,0,0,1-2.1-8.461,33.024,33.024,0,0,0-8.519,2.348,32.834,32.834,0,0,0,2.221,8.533,23.9,23.9,0,0,1,8.395-2.42" transform="translate(-29.869 -43.536)" fill="#20a6d6"/></g></g></svg>