<svg xmlns="http://www.w3.org/2000/svg" width="55" height="55.153" viewBox="0 0 55 55.153"><g transform="translate(-7.299 -7.2)"><path d="M56.257,62.354H13.188A5.887,5.887,0,0,1,7.3,56.466V13.242A5.918,5.918,0,0,1,13.188,7.2H56.412A5.887,5.887,0,0,1,62.3,13.087V56.312a6.2,6.2,0,0,1-6.042,6.042Z" transform="translate(0)" fill="#0f9d58"/><path d="M13.9,14.165V48.248a.5.5,0,0,0,.465.465H47.829a.5.5,0,0,0,.465-.465V14.165a.5.5,0,0,0-.465-.465H14.365A.5.5,0,0,0,13.9,14.165Zm3.563,2.944h6.972v7.127H17.463Zm0,10.535h6.972V34.77H17.463Zm0,10.535h6.972V45.3H17.463ZM44.73,45.3H27.688V38.178H44.73Zm0-10.535H27.688V27.643H44.73Zm0-10.535H27.688V17.108H44.73Z" transform="translate(3.626 3.57)" fill="#fff"/></g></svg>