<svg xmlns="http://www.w3.org/2000/svg" width="50" height="50.391" viewBox="0 0 50 50.391"><g transform="translate(0 0)"><path d="M50.767.385H17.433v16.8H.766V50.776H34.1v-16.8H50.767V.385" transform="translate(-0.766 -0.385)" fill="#fffffe" fill-rule="evenodd"/><path d="M.766,44.421v0" transform="translate(-0.766 -10.708)" fill="#48606a" fill-rule="evenodd"/><path d="M34.575,61.457h-16.9V44.421H.766V27.385h16.9V44.421h16.9V61.457" transform="translate(-0.766 -11.067)" fill="#a7dae7" fill-rule="evenodd"/><path d="M.766,71.421h16.9V54.385H.766Z" transform="translate(-0.766 -21.03)" fill="#3a75ad" fill-rule="evenodd"/><path d="M61.365,34.457v0M44.461.385h0" transform="translate(-11.365 -0.385)" fill="#112c35" fill-rule="evenodd"/><path d="M61.365,34.457h-16.9V17.421h-16.9V.385h16.9V17.421h16.9V34.457" transform="translate(-11.365 -0.385)" fill="#00b0d4" fill-rule="evenodd"/><path d="M27.557,44.421h16.9V27.385h-16.9Z" transform="translate(-11.009 -10.708)" fill="#00b0d4" fill-rule="evenodd"/><path d="M54.348,17.421h16.9V.385h-16.9Z" transform="translate(-21.252 -0.385)" fill="#3a75ad" fill-rule="evenodd"/></g></svg>