<svg id="img-check" xmlns="http://www.w3.org/2000/svg" width="60.253" height="60.253" viewBox="0 0 60.253 60.253">
  <path id="Path_51525" data-name="Path 51525" d="M60.253,30.126A30.126,30.126,0,1,1,30.126,0,30.126,30.126,0,0,1,60.253,30.126Zm0,0" fill="#3ad378"/>
  <path id="Path_51526" data-name="Path 51526" d="M27.954,63.447a15.615,15.615,0,0,0,3.588-5.611l-4.007-3.4S22.612,44.976,22.643,45c-10.992-12.783-2.694-30.114-2.6-30.309a30.134,30.134,0,0,0,6.736,58.34A7.531,7.531,0,0,1,27.954,63.447Zm0,0" transform="translate(0 -12.962)" fill="#28c768"/>
  <path id="Path_51527" data-name="Path 51527" d="M100.991,179.441a4.372,4.372,0,0,1-2.678-.914l-14.2-10.955a4.388,4.388,0,1,1,5.36-6.948l10.988,8.476,15.16-16.778a4.387,4.387,0,0,1,6.511,5.883L104.248,178A4.381,4.381,0,0,1,100.991,179.441Zm0,0" transform="translate(-72.706 -133.122)" fill="#fffcdc"/>
</svg>
