<svg xmlns="http://www.w3.org/2000/svg" width="29.361" height="32.644" viewBox="0 0 29.361 32.644"><g transform="translate(0 0)"><g transform="translate(0)"><path d="M171.53,63.637a8.3,8.3,0,0,0-3.012-2.992,8.086,8.086,0,0,0-3.046-1.055V55.637a2.918,2.918,0,0,0,1.8-2.732,3,3,0,1,0-6,0,2.883,2.883,0,0,0,1.76,2.732v3.954a8.7,8.7,0,0,0-2.651.831c-1.718-1.3-7.352-5.585-10.647-8.086a3.269,3.269,0,0,0,.138-.879,3.355,3.355,0,1,0-1.617,2.843l.7.528,9.557,6.886a8.012,8.012,0,0,0-1.352,1.584,7.39,7.39,0,0,0-1.229,3.983v.3a8.348,8.348,0,0,0,.522,2.879,7.556,7.556,0,0,0,1.238,2.151l-3.172,3.179a2.563,2.563,0,1,0,1.571,1.639l3.278-3.279a8.426,8.426,0,0,0,1.457.8,8.518,8.518,0,0,0,3.409.716h.228a8.163,8.163,0,0,0,6.939-3.854,7.531,7.531,0,0,0,1.184-4.057V67.68A7.954,7.954,0,0,0,171.53,63.637Zm-4.006,6.878a4.169,4.169,0,0,1-3.069,1.6h-.191a4.148,4.148,0,0,1-1.939-.515,4.481,4.481,0,0,1-1.7-1.547,3.608,3.608,0,0,1-.707-2.106v-.228a4.314,4.314,0,0,1,.5-2.1A4.542,4.542,0,0,1,162,63.891a3.87,3.87,0,0,1,2.19-.661h.074a4.439,4.439,0,0,1,2.06.475,4.363,4.363,0,0,1,1.618,1.472,4.681,4.681,0,0,1,.725,2.068c.012.155.018.314.018.466A4.091,4.091,0,0,1,167.524,70.515Z" transform="translate(-143.217 -48.13)" fill="#fff"/></g></g></svg>