<svg xmlns="http://www.w3.org/2000/svg" width="87.786" height="22.136" viewBox="0 0 87.786 22.136"><path d="M89.771,424.242a3.982,3.982,0,0,0-3.442,1.734,3.241,3.241,0,0,0-2.914-1.734,3.747,3.747,0,0,0-3.01,1.355v-.2a1.084,1.084,0,0,0-1.068-1.068A1.06,1.06,0,0,0,78.29,425.4v8.092a1.06,1.06,0,0,0,2.117,0v-5.593a2.921,2.921,0,0,1,2.517-1.666c1.24,0,1.724.6,1.724,2.176V433.5a1.06,1.06,0,0,0,2.117,0v-5.6a2.921,2.921,0,0,1,2.517-1.666c1.24,0,1.724.6,1.724,2.176V433.5a1.06,1.06,0,0,0,2.117,0v-5.433C93.121,426.223,92.079,424.242,89.771,424.242Z" transform="translate(-78.29 -412.507)" fill="#58c16d"/><path d="M167.576,424.25a8.268,8.268,0,0,0-3.34.694.943.943,0,0,0-.614.9.9.9,0,0,0,.9.917,1.264,1.264,0,0,0,.307-.048,7.306,7.306,0,0,1,2.446-.443c1.636,0,2.312.6,2.326,2.089H167.52c-2.842,0-4.54,1.218-4.54,3.257a3.067,3.067,0,0,0,3.275,3.031,4.989,4.989,0,0,0,3.352-1.172v.028a1.06,1.06,0,0,0,2.117,0v-5.338A3.824,3.824,0,0,0,167.576,424.25Zm-.678,8.489c-1.194,0-1.806-.439-1.806-1.308,0-.319,0-1.29,2.647-1.29h1.868v1.307a3.9,3.9,0,0,1-2.709,1.292Z" transform="translate(-145.984 -412.516)" fill="#58c16d"/><rect width="2.438" height="2.4" rx="1.2" transform="translate(28.598 7.961)" fill="#58c16d"/><g transform="translate(28.749)"><path d="M222.589,424.72a1.048,1.048,0,0,0-1.05,1.068v8.092a1.06,1.06,0,0,0,2.117,0v-8.1a1.058,1.058,0,0,0-1.068-1.06Z" transform="translate(-221.539 -412.891)" fill="#58c16d"/><path d="M249.289,404a1.048,1.048,0,0,0-1.05,1.068V417.31a1.06,1.06,0,0,0,2.117,0V405.068A1.058,1.058,0,0,0,249.289,404Z" transform="translate(-242.881 -396.329)" fill="#58c16d"/><path d="M276.44,424.25a4.382,4.382,0,0,0-3.586,1.622,5.773,5.773,0,0,0-1.124,3.578c0,3.255,1.9,5.2,5.085,5.2a6.025,6.025,0,0,0,3.4-.857,1.038,1.038,0,0,0,.592-.873.935.935,0,0,0-.955-.937.892.892,0,0,0-.431.1,4.934,4.934,0,0,1-2.454.562,2.743,2.743,0,0,1-3.071-2.39h6.165a1.024,1.024,0,0,0,1.068-1.05A4.619,4.619,0,0,0,276.44,424.25Zm0,1.854a2.53,2.53,0,0,1,2.573,2.352h-5.128A2.508,2.508,0,0,1,276.44,426.1Z" transform="translate(-261.657 -412.516)" fill="#58c16d"/><path d="M335.273,424.25h-.094a3.683,3.683,0,0,0-2.761,1.4V425.4a1.084,1.084,0,0,0-1.068-1.068,1.06,1.06,0,0,0-1.05,1.068V433.5a1.06,1.06,0,0,0,2.117,0v-5.664a3.282,3.282,0,0,1,2.723-1.521h.094a1,1,0,0,0,1.068-1,1.03,1.03,0,0,0-1.03-1.058Z" transform="translate(-308.473 -412.516)" fill="#58c16d"/><path d="M403.65,365.78H382.29a3.01,3.01,0,0,0-3.01,3.01v19.124l4.146-4.106H403.65a3.01,3.01,0,0,0,3.01-3.01V368.79A3.01,3.01,0,0,0,403.65,365.78Zm-17.974,13.49a.8.8,0,0,1-1.606,0v-8.529a.8.8,0,1,1,1.606,0Zm3.733,0a.8.8,0,0,1-1.606,0v-5.639a.8.8,0,0,1,1.606,0Zm.118-8.214a.871.871,0,0,1-.871.871h-.078a.871.871,0,0,1-.871-.871V371a.871.871,0,0,1,.871-.871h.078a.871.871,0,0,1,.871.871Zm5.645,8.816a2.77,2.77,0,0,1-1.18.257c-1.387,0-2.119-.668-2.119-1.935v-3.873h-.732a.442.442,0,0,1-.452-.45.492.492,0,0,1,.191-.377l1.776-1.738a.525.525,0,0,1,.363-.175.451.451,0,0,1,.454.464v.851h1.284a.713.713,0,0,1,0,1.427h-1.284v3.769c0,.546.271.588.654.588a1.644,1.644,0,0,0,.47-.066,1.2,1.2,0,0,1,.319-.052.684.684,0,0,1,.674.674.7.7,0,0,1-.417.636Zm4.923-1.254a3.379,3.379,0,0,0,1.682-.385.687.687,0,0,1,.329-.074.712.712,0,0,1,.726.712.782.782,0,0,1-.444.66,4.284,4.284,0,0,1-2.408.6,3.354,3.354,0,0,1-3.612-3.683c0-2.719,1.806-3.685,3.341-3.685a3.288,3.288,0,0,1,3.33,3.512.773.773,0,0,1-.8.793h-4.214a1.875,1.875,0,0,0,2.073,1.547Z" transform="translate(-347.623 -365.78)" fill="#58c16d"/><path d="M474.4,407.649a1.688,1.688,0,0,0-1.71,1.517h3.434A1.7,1.7,0,0,0,474.4,407.649Z" transform="translate(-422.286 -399.246)" fill="#58c16d"/></g></svg>