<svg id="img-error" xmlns="http://www.w3.org/2000/svg" width="60.253" height="60.253" viewBox="0 0 60.253 60.253">
  <path id="Path_51522" data-name="Path 51522" d="M60.253,30.126A30.126,30.126,0,1,1,30.126,0,30.126,30.126,0,0,1,60.253,30.126Zm0,0" fill="#fd784c"/>
  <path id="Path_51523" data-name="Path 51523" d="M31.477,74.576a9.427,9.427,0,0,0,3.1-11.625S23.5,44.329,22,44.329c-9.25-6.137-3.907-23.088-3.876-23.189a30.132,30.132,0,0,0,9.709,57.679A12.1,12.1,0,0,1,31.477,74.576Zm0,0" transform="translate(0 -18.653)" fill="#eb6639"/>
  <path id="Path_51524" data-name="Path 51524" d="M121.436,101.411h-8.944a2.181,2.181,0,0,1-2.181-2.181V90.286a4.45,4.45,0,1,0-8.9,0V99.23a2.182,2.182,0,0,1-2.181,2.181H90.286a4.45,4.45,0,1,0,0,8.9H99.23a2.182,2.182,0,0,1,2.181,2.181v8.944a4.45,4.45,0,1,0,8.9,0v-8.944a2.181,2.181,0,0,1,2.181-2.181h8.944a4.45,4.45,0,0,0,0-8.9Zm0,0" transform="translate(-119.584 30.126) rotate(-45)" fill="#fffcdc"/>
</svg>
