<svg id="img-discover" xmlns="http://www.w3.org/2000/svg" width="25" height="25" viewBox="0 0 25 25">
  <circle id="Ellipse_21" data-name="Ellipse 21" cx="12.5" cy="12.5" r="12.5" transform="translate(0 0)" fill="#f3f2f2"/>
  <circle id="Ellipse_22" data-name="Ellipse 22" cx="1.645" cy="1.645" r="1.645" transform="translate(11.666 10.079)" fill="#f26e21"/>
  <g id="Group_1191" data-name="Group 1191" transform="translate(2.832 10.096)">
    <path id="Path_557" data-name="Path 557" d="M55.311,195.079a1.17,1.17,0,0,1-.841.249h-.165v-2.065h.165a1.146,1.146,0,0,1,.841.253,1.044,1.044,0,0,1,.339.777,1.065,1.065,0,0,1-.339.787Zm-.718-2.345h-.9v3.122h.9a1.648,1.648,0,0,0,1.123-.36,1.56,1.56,0,0,0-1.119-2.762" transform="translate(-53.691 -192.663)" fill="#0b161f"/>
    <path id="Path_558" data-name="Path 558" d="M108.2,195.856h.613v-3.122H108.2v3.122" transform="translate(-105.325 -192.663)" fill="#0b161f"/>
    <path id="Path_559" data-name="Path 559" d="M125.5,193c-.369-.136-.477-.225-.477-.393,0-.2.193-.347.458-.347a.641.641,0,0,1,.5.252l.32-.416a1.382,1.382,0,0,0-.925-.347.922.922,0,0,0-.982.894c0,.431.2.651.774.858a2.389,2.389,0,0,1,.425.178.373.373,0,0,1,.184.323.447.447,0,0,1-.477.44.727.727,0,0,1-.67-.416l-.4.38a1.227,1.227,0,0,0,1.09.595,1.012,1.012,0,0,0,1.085-1.026c0-.5-.207-.721-.906-.974" transform="translate(-120.505 -191.73)" fill="#0b161f"/>
    <path id="Path_560" data-name="Path 560" d="M169.143,193.028a1.624,1.624,0,0,0,1.662,1.63,1.709,1.709,0,0,0,.77-.182v-.717a.986.986,0,0,1-.742.342,1.025,1.025,0,0,1-1.058-1.077,1.042,1.042,0,0,1,1.03-1.072,1.03,1.03,0,0,1,.77.351v-.716a1.578,1.578,0,0,0-.756-.191,1.649,1.649,0,0,0-1.676,1.633" transform="translate(-163.053 -191.395)" fill="#0b161f"/>
    <path id="Path_561" data-name="Path 561" d="M282.427,194.831l-.84-2.1h-.67l1.336,3.2h.33l1.36-3.2h-.666l-.85,2.1" transform="translate(-268.93 -192.663)" fill="#0b161f"/>
    <path id="Path_562" data-name="Path 562" d="M343.576,195.856h1.742v-.528H344.19v-.844h1.085v-.528H344.19v-.693h1.128v-.529h-1.742v3.122" transform="translate(-328.285 -192.663)" fill="#0b161f"/>
    <path id="Path_563" data-name="Path 563" d="M385.072,194.171h-.179v-.946h.188c.383,0,.591.16.591.464s-.208.483-.6.483Zm1.232-.516c0-.585-.406-.921-1.114-.921h-.911v3.122h.614V194.6h.081l.849,1.255h.755l-.992-1.315a.832.832,0,0,0,.718-.885" transform="translate(-366.841 -192.663)" fill="#0b161f"/>
  </g>
  <path id="Path_564" data-name="Path 564" d="M138.61,275.391v-1.756l1.2,1.255v-1.143h.248v1.745l-1.2-1.252v1.151h-.248Z" transform="translate(-131.298 -259.201)"/>
  <path id="Path_565" data-name="Path 565" d="M174.432,275.99h-.659v.4h.64v.233h-.64v.549h.659v.233h-.908v-1.645h.908Z" transform="translate(-164.371 -261.211)"/>
  <path id="Path_566" data-name="Path 566" d="M194.263,275.986V277.4h-.248v-1.411h-.378v-.233h1v.233Z" transform="translate(-183.423 -261.207)"/>
  <path id="Path_567" data-name="Path 567" d="M215.412,274.322l.428,1.1.448-1.179.428,1.179.455-1.1h.27l-.735,1.749-.423-1.165-.441,1.166-.7-1.75Z" transform="translate(-203.794 -259.776)"/>
  <path id="Path_568" data-name="Path 568" d="M259.607,276.018a.805.805,0,0,1,.255-.6.838.838,0,0,1,.61-.249.86.86,0,0,1,.855.855.81.81,0,0,1-.253.6.869.869,0,0,1-1.187.028A.809.809,0,0,1,259.607,276.018Zm.25,0a.6.6,0,0,0,.183.448.608.608,0,0,0,.858,0,.637.637,0,0,0,0-.881.613.613,0,0,0-.866,0A.591.591,0,0,0,259.857,276.02Z" transform="translate(-245.913 -260.657)"/>
  <path id="Path_569" data-name="Path 569" d="M298.672,276.7l.509.7h-.3l-.47-.673h-.045v.673h-.248v-1.645h.291a.727.727,0,0,1,.471.123.449.449,0,0,1,.16.36.466.466,0,0,1-.1.3A.446.446,0,0,1,298.672,276.7Zm-.309-.189h.079q.353,0,.353-.269,0-.253-.343-.252h-.088v.522Z" transform="translate(-282.39 -261.211)"/>
  <path id="Path_570" data-name="Path 570" d="M323.264,276.412l.64-.656h.331l-.743.745.748.9h-.332l-.592-.732-.051.051v.68h-.248v-1.645h.248v.656Z" transform="translate(-305.977 -261.21)"/>
  <path id="Path_571" data-name="Path 571" d="M158.722,254.743c-2.351,2.978-7.808,8.122-17.512,10.5a12.5,12.5,0,0,0,17.512-10.5Z" transform="translate(-133.761 -241.305)" fill="#f26e21"/>
</svg>
