<svg xmlns="http://www.w3.org/2000/svg" width="33.051" height="50" viewBox="0 0 33.051 50"><g transform="translate(0 0)"><g transform="translate(0 0)"><g transform="translate(0 0)"><path d="M14.643,37.03a4.414,4.414,0,0,0,2.7-1.073c1.113-.8,2.092-1.454,2.092-1.454l.337-.242-.337-.242C19.3,33.914,4.622,23.457,3.1,22.453a2.1,2.1,0,0,0-2.159-.312A1.889,1.889,0,0,0,0,23.907v3.566l.135.069c.1.069,10.19,7.271,12.146,8.622A3.982,3.982,0,0,0,14.643,37.03Z" transform="translate(0 -8.967)" fill="#356ae6" fill-rule="evenodd"/><path d="M31.346,21.5C30.541,20.925,1.642,1.125.4.274L0,0V4.866C0,6.417.836,7,1.858,7.725c0,0,22.178,15.176,24.934,17.032C24.036,26.642,3.159,40.845,1.827,41.667.248,42.7.093,43.37.093,44.769V50S30.665,28.528,31.315,28.041a3.936,3.936,0,0,0,1.735-3.133v-.547A3.367,3.367,0,0,0,31.346,21.5Z" fill="#356ae6" fill-rule="evenodd"/></g></g></g></svg>