<svg xmlns="http://www.w3.org/2000/svg" width="26" height="26" viewBox="0 0 26 26"><path d="M21.48,10.023a14.938,14.938,0,0,0-.236-2.659H9v5.029h7A5.98,5.98,0,0,1,13.4,16.316v3.262h4.2a12.679,12.679,0,0,0,3.876-9.555Z" transform="translate(4 3.273)" fill="#4285f4" fill-rule="evenodd"/><path d="M12.575,21.24a12.411,12.411,0,0,0,8.6-3.15l-4.2-3.262A7.843,7.843,0,0,1,5.3,10.71H.957v3.368A13,13,0,0,0,12.575,21.24Z" transform="translate(0.425 4.76)" fill="#34a853" fill-rule="evenodd"/><path d="M5.726,13.266a7.685,7.685,0,0,1,0-4.94V4.958H1.383a13.016,13.016,0,0,0,0,11.676l4.343-3.368Z" transform="translate(0 2.204)" fill="#fbbc05" fill-rule="evenodd"/><path d="M12.575,5.17a7.023,7.023,0,0,1,4.97,1.944l3.729-3.729A12.494,12.494,0,0,0,12.575,0,13,13,0,0,0,.957,7.162L5.3,10.53a7.748,7.748,0,0,1,7.274-5.36Z" transform="translate(0.425)" fill="#ea4335" fill-rule="evenodd"/><path d="M0,0H26V26H0Z" fill="none" fill-rule="evenodd"/></svg>