<svg xmlns="http://www.w3.org/2000/svg" width="70" height="70" viewBox="0 0 70 70"><g transform="translate(-1171.5 -1277)"><rect width="70" height="70" rx="19" transform="translate(1171.5 1277)" fill="#00d7fe" opacity="0.1"/><rect width="46.667" height="46.667" rx="14" transform="translate(1183.167 1288.813)" fill="#00d7fe"/><g transform="translate(1193.813 1298.875)"><path d="M19.2,29.6v5.351l5.746,2.55V32.186Z" transform="translate(-12.304 -18.969)" fill="#fff"/><path d="M5.315,7.722l7.326,3.232V5.639L0,0V20.543H.108l12.534,5.6V20.794L5.315,17.526Z" fill="#fff"/><g transform="translate(12.642)"><path d="M42.526,34.4v2.227L35.2,39.892h0v5.351h0l12.534-5.6h.108V29.8l-9.05,6.213Z" transform="translate(-35.2 -19.098)" fill="#fff"/><path d="M47.842,7.686V0L35.2,5.639h0v5.315h0l7.326-3.268V9.948L35.2,13.216v5.315L47.842,9.84l8.476-5.854Z" transform="translate(-35.2)" fill="#fff"/></g></g></g></svg>