<svg xmlns="http://www.w3.org/2000/svg" width="21.789" height="25.872" viewBox="0 0 21.789 25.872"><path d="M25.326,22.161a14.042,14.042,0,0,1-1.39,2.5,12.761,12.761,0,0,1-1.791,2.167,3.482,3.482,0,0,1-2.3,1.013,5.771,5.771,0,0,1-2.126-.508,6.1,6.1,0,0,0-2.291-.505,6.305,6.305,0,0,0-2.355.505,6.283,6.283,0,0,1-2.035.535,3.268,3.268,0,0,1-2.354-1.04,13.4,13.4,0,0,1-1.874-2.243A15.49,15.49,0,0,1,4.826,20.65a14.429,14.429,0,0,1-.832-4.692,8.567,8.567,0,0,1,1.124-4.481A6.611,6.611,0,0,1,7.473,9.094a6.329,6.329,0,0,1,3.185-.9,7.463,7.463,0,0,1,2.464.574,7.954,7.954,0,0,0,1.955.574,11.776,11.776,0,0,0,2.168-.678,7.161,7.161,0,0,1,2.944-.523,6.253,6.253,0,0,1,4.9,2.58,5.45,5.45,0,0,0-2.89,4.951,5.458,5.458,0,0,0,1.793,4.115,5.894,5.894,0,0,0,1.79,1.175c-.144.418-.3.817-.457,1.2ZM20.334,2.518A5.525,5.525,0,0,1,18.92,6.137a4.824,4.824,0,0,1-4,1.976,4.022,4.022,0,0,1-.029-.49,5.662,5.662,0,0,1,1.5-3.659,5.781,5.781,0,0,1,1.828-1.373A5.45,5.45,0,0,1,20.308,2a5.128,5.128,0,0,1,.026.519Z" transform="translate(-3.994 -1.999)" fill="#fff"/></svg>