<svg xmlns="http://www.w3.org/2000/svg" width="30" height="28.696" viewBox="0 0 30 28.696">
  <g id="mail-balance" transform="translate(0 -10.667)">
    <path id="Path_51469" data-name="Path 51469" d="M43.67,172.99a3.26,3.26,0,0,1-2.309.952H17.883a3.261,3.261,0,0,1-2.309-.952l10.643-10.644,1.8,1.3a2.7,2.7,0,0,0,3.209,0l1.8-1.3Z" transform="translate(-14.622 -142.406)" fill="#ffa000"/>
    <path id="Path_51470" data-name="Path 51470" d="M38.788,12.01l-10.97,7.93-1.8,1.3a2.7,2.7,0,0,1-3.209,0l-1.8-1.3L10.027,12.023a3.243,3.243,0,0,1,2.648-1.357H36.153A3.261,3.261,0,0,1,38.788,12.01Z" transform="translate(-9.414 0)" fill="#ffd54f"/>
    <g id="Group_38414" data-name="Group 38414" transform="translate(0 12.01)">
      <path id="Path_51471" data-name="Path 51471" d="M.613,32.854,11.6,40.771.952,51.415A3.261,3.261,0,0,1,0,49.106V34.758A3.222,3.222,0,0,1,.613,32.854Z" transform="translate(0 -32.841)" fill="#ffc107"/>
      <path id="Path_51472" data-name="Path 51472" d="M312.61,34.557V48.905a3.261,3.261,0,0,1-.952,2.309L301.014,40.57l10.97-7.93A3.242,3.242,0,0,1,312.61,34.557Z" transform="translate(-282.61 -32.64)" fill="#ffc107"/>
    </g>
    <circle id="Ellipse_338" data-name="Ellipse 338" cx="7.174" cy="7.174" r="7.174" transform="translate(7.826 25.015)" fill="#3ad378"/>
    <path id="Path_51473" data-name="Path 51473" d="M174.04,326a.652.652,0,0,1-.462-.19L170.97,323.2a.652.652,0,0,1,.922-.922l2.148,2.147,4.1-4.1a.652.652,0,0,1,.922.922l-4.565,4.565A.652.652,0,0,1,174.04,326Z" transform="translate(-160.345 -290.553)" fill="#fafafa"/>
  </g>
</svg>
