<svg xmlns="http://www.w3.org/2000/svg" width="25" height="32.821" viewBox="0 0 25 32.821">
  <g id="to-do-list" transform="translate(-61)">
    <path id="Path_51528" data-name="Path 51528" d="M121,0h21.154V28.974H121Z" transform="translate(-56.154)" fill="#ff9e7e"/>
    <path id="Path_51529" data-name="Path 51529" d="M226,0h14.423V28.974H226Z" transform="translate(-154.423)" fill="#fd784c"/>
    <path id="Path_51530" data-name="Path 51530" d="M82.154,61V89.91H68.692L61,82.218V61Z" transform="translate(0 -57.09)" fill="#f0f7ff"/>
    <path id="Path_51531" data-name="Path 51531" d="M226,61h10.577V89.91H226Z" transform="translate(-154.423 -57.09)" fill="#e8effd"/>
    <path id="Path_51532" data-name="Path 51532" d="M61,392v1.36l6.333,6.333h1.36V392Z" transform="translate(0 -366.872)" fill="#cdf"/>
    <g id="Group_38918" data-name="Group 38918" transform="translate(64.166 9.064)">
      <path id="Path_51533" data-name="Path 51533" d="M113,146.319l-2.6-2.6,1.36-1.36L113,143.6l2.2-2.2,1.36,1.36Z" transform="translate(-110.395 -141.395)" fill="#fd784c"/>
    </g>
    <g id="Group_38919" data-name="Group 38919" transform="translate(71.577 11.667)">
      <path id="Path_51534" data-name="Path 51534" d="M226,182h6.731v1.923H226Z" transform="translate(-226 -182)" fill="#cdf"/>
    </g>
    <g id="Group_38920" data-name="Group 38920" transform="translate(64.166 13.871)">
      <path id="Path_51535" data-name="Path 51535" d="M113,221.319l-2.6-2.6,1.36-1.36L113,218.6l2.2-2.2,1.36,1.36Z" transform="translate(-110.395 -216.395)" fill="#fd784c"/>
    </g>
    <g id="Group_38921" data-name="Group 38921" transform="translate(71.577 16.474)">
      <path id="Path_51536" data-name="Path 51536" d="M226,257h6.731v1.923H226Z" transform="translate(-226 -257)" fill="#cdf"/>
    </g>
    <g id="Group_38922" data-name="Group 38922" transform="translate(64.166 18.679)">
      <path id="Path_51537" data-name="Path 51537" d="M113,296.319l-2.6-2.6,1.36-1.36L113,293.6l2.2-2.2,1.36,1.36Z" transform="translate(-110.395 -291.395)" fill="#fd784c"/>
    </g>
    <g id="Group_38923" data-name="Group 38923" transform="translate(71.577 21.282)">
      <path id="Path_51538" data-name="Path 51538" d="M226,332h6.731v1.923H226Z" transform="translate(-226 -332)" fill="#cdf"/>
    </g>
  </g>
</svg>
